<?xml version="1.0" standalone="no"?>
<!DOCTYPE svg PUBLIC "-//W3C//DTD SVG 20010904//EN"
 "http://www.w3.org/TR/2001/REC-SVG-20010904/DTD/svg10.dtd">
<svg version="1.0" xmlns="http://www.w3.org/2000/svg"
 width="1024.000000pt" height="1024.000000pt" viewBox="0 0 1024.000000 1024.000000"
 preserveAspectRatio="xMidYMid meet">

<g transform="translate(0.000000,1024.000000) scale(0.100000,-0.100000)"
fill="#000000" stroke="none">
<path d="M4887 9629 c-47 -25 -88 -86 -94 -143 l-5 -44 -59 -4 c-65 -5 -93
-23 -115 -75 -19 -44 -17 -128 3 -170 18 -39 65 -73 101 -73 20 0 22 -4 22
-64 0 -49 6 -75 28 -118 24 -49 27 -64 24 -132 l-4 -76 -83 0 -83 0 -39 39
c-65 65 -163 65 -225 -1 -74 -80 -58 -236 31 -295 64 -43 179 -23 211 36 9 18
20 21 85 21 l75 0 0 -143 c0 -107 4 -156 17 -192 15 -44 15 -77 4 -364 -17
-454 -40 -929 -47 -982 -13 -108 -135 -237 -399 -424 -372 -263 -533 -433
-656 -689 -27 -57 -61 -149 -76 -203 -39 -145 -37 -332 5 -577 20 -119 37
-188 49 -204 10 -14 46 -34 82 -47 77 -28 131 -78 162 -149 28 -64 38 -248 19
-364 -43 -268 -192 -461 -375 -487 -28 -4 -62 -14 -77 -21 -27 -14 -30 -20
-91 -194 -19 -52 -57 -157 -86 -233 -100 -268 -137 -475 -127 -717 14 -354
123 -634 349 -892 152 -174 426 -354 691 -452 213 -80 466 -134 712 -152 l91
-7 7 -60 c3 -33 6 -118 6 -189 0 -145 10 -177 60 -198 39 -16 86 -4 111 30 16
21 20 50 23 177 3 84 10 161 15 172 6 11 11 31 11 44 0 24 2 24 133 36 326 29
603 104 857 231 456 228 734 576 827 1037 28 137 25 441 -5 593 -27 134 -66
259 -132 425 -26 66 -62 163 -79 216 -39 117 -57 136 -147 155 -132 28 -229
109 -298 249 -62 124 -79 208 -80 385 -1 151 0 157 28 218 36 78 88 126 159
147 88 25 94 37 128 241 63 380 46 562 -77 808 -122 243 -266 392 -631 654
-199 143 -254 189 -321 265 -90 104 -99 130 -111 317 -18 303 -44 1134 -37
1193 l7 57 78 0 c74 0 78 -1 99 -29 11 -16 42 -37 67 -46 169 -65 290 182 156
316 -65 65 -160 62 -220 -6 -30 -34 -32 -35 -106 -35 l-75 0 0 38 c0 20 -3 81
-7 135 l-6 97 85 0 c84 0 87 -1 120 -34 66 -66 160 -66 224 -2 82 82 65 245
-31 301 -74 44 -165 25 -208 -41 -22 -34 -22 -34 -104 -34 l-83 0 22 43 c15
27 24 65 26 110 4 58 7 67 24 67 109 0 161 207 73 290 -20 19 -40 25 -90 28
l-65 4 0 40 c0 46 -17 83 -57 120 -46 43 -72 48 -271 48 -167 -1 -191 -3 -225
-21z m343 -226 c0 -10 7 -83 15 -163 8 -80 15 -157 15 -172 l0 -28 -138 0
c-76 0 -141 2 -143 5 -5 5 17 285 26 343 l6 32 109 0 c98 0 110 -2 110 -17z
m-170 -763 c0 -94 -4 -428 -10 -743 -5 -314 -17 -1053 -25 -1642 -9 -588 -20
-1288 -25 -1555 -5 -267 -10 -583 -10 -702 l0 -218 -60 0 -60 0 0 63 c1 91 18
742 30 1117 34 1074 90 3416 90 3773 l0 77 35 0 35 0 0 -170z m184 -52 c3
-123 11 -412 16 -643 27 -1167 51 -2085 70 -2675 21 -678 30 -1036 33 -1258
l2 -232 -57 0 -58 0 0 133 c0 72 -5 377 -10 677 -5 300 -17 993 -25 1540 -9
547 -22 1362 -30 1810 -8 448 -15 827 -15 843 0 24 4 27 34 27 l33 0 7 -222z
m-524 -2574 c-22 -485 -39 -895 -43 -1041 -2 -100 -1 -102 27 -132 15 -16 39
-32 53 -36 l25 -6 -6 -337 c-3 -185 -9 -415 -12 -509 l-6 -173 -33 0 c-21 0
-45 -9 -64 -26 -25 -21 -31 -33 -31 -65 0 -56 34 -89 93 -89 l43 0 13 -247 c6
-137 14 -283 18 -325 l6 -78 -27 0 c-36 0 -86 -50 -86 -85 0 -15 36 -136 79
-269 140 -429 162 -559 168 -998 l5 -328 -26 0 c-14 0 -78 7 -143 15 -580 77
-1026 331 -1243 711 -165 289 -198 641 -94 1001 20 69 117 331 173 468 6 13
28 27 63 38 197 62 370 279 445 557 35 130 44 351 18 467 -32 149 -119 278
-235 353 -28 18 -50 33 -50 34 0 1 -11 65 -25 142 -40 226 -31 371 35 543 18
46 58 122 90 170 113 169 223 269 540 491 96 67 190 135 209 151 19 16 36 27
38 26 1 -2 -6 -192 -17 -423z m1087 202 c310 -214 460 -368 554 -571 79 -168
97 -349 59 -576 -13 -74 -26 -139 -29 -146 -4 -7 -34 -32 -68 -55 -111 -78
-189 -199 -219 -340 -24 -112 -14 -353 20 -475 46 -167 114 -291 219 -400 71
-74 136 -118 220 -148 l61 -22 63 -159 c35 -88 79 -204 97 -259 119 -354 104
-721 -42 -1010 -102 -203 -294 -397 -520 -527 -229 -132 -544 -227 -843 -254
l-76 -6 -6 113 c-27 458 19 780 178 1258 36 107 65 209 65 228 0 38 -26 69
-66 79 l-27 7 7 176 c3 97 9 242 12 324 l7 147 39 0 c31 0 46 7 70 30 26 27
30 36 25 68 -8 47 -47 82 -92 82 -33 0 -34 1 -39 53 -3 28 -8 258 -11 510 -5
417 -4 457 11 457 9 0 32 16 52 36 l35 35 -7 221 c-3 121 -18 464 -31 762 -14
298 -25 551 -25 563 0 19 10 14 83 -40 45 -35 146 -107 224 -161z m-817 -2651
c0 -41 18 -463 24 -552 l4 -63 -54 0 -53 0 -5 43 c-3 23 -10 130 -16 237 -5
107 -12 234 -16 283 l-6 87 61 0 61 0 0 -35z m370 8 c0 -65 -20 -484 -26 -550
l-6 -73 -56 0 -55 0 6 108 c4 59 10 205 13 325 l7 217 59 0 c57 0 58 -1 58
-27z"/>
<path d="M4494 4380 c-45 -10 -100 -46 -129 -83 -62 -83 -83 -180 -110 -527
-18 -242 -29 -313 -56 -397 -31 -94 -80 -143 -142 -143 -32 0 -41 33 -16 56
22 20 26 89 6 115 -32 42 -108 52 -149 19 -57 -44 -73 -132 -39 -205 55 -119
190 -159 319 -94 73 36 121 88 169 183 70 138 97 303 108 666 5 125 12 206 20
227 14 32 41 53 70 53 15 0 15 -2 1 -22 -60 -86 59 -174 134 -100 79 80 27
218 -95 251 -44 12 -47 12 -91 1z"/>
<path d="M5647 4376 c-77 -28 -117 -86 -117 -166 0 -44 5 -56 29 -81 40 -40
100 -41 130 -3 25 32 27 81 4 106 -15 17 -15 18 6 18 33 0 69 -45 75 -93 3
-23 8 -125 11 -227 11 -326 36 -473 105 -616 100 -206 305 -287 436 -172 118
103 87 298 -47 298 -58 0 -99 -39 -99 -94 0 -29 6 -48 19 -60 23 -21 16 -56
-11 -56 -71 0 -135 79 -163 202 -8 37 -26 195 -40 350 -33 373 -49 441 -121
527 -53 63 -148 92 -217 67z"/>
</g>
</svg>
