<?xml version="1.0" standalone="no"?>
<!DOCTYPE svg PUBLIC "-//W3C//DTD SVG 20010904//EN"
 "http://www.w3.org/TR/2001/REC-SVG-20010904/DTD/svg10.dtd">
<svg version="1.0" xmlns="http://www.w3.org/2000/svg"
 width="1024.000000pt" height="1024.000000pt" viewBox="0 0 1024.000000 1024.000000"
 preserveAspectRatio="xMidYMid meet">

<g transform="translate(0.000000,1024.000000) scale(0.100000,-0.100000)"
fill="#000000" stroke="none">
<path d="M5001 9869 c-45 -14 -108 -54 -121 -79 -21 -39 -41 -186 -50 -370 -5
-102 -9 -186 -10 -187 0 -2 -36 -3 -80 -3 -73 0 -83 -3 -105 -25 -34 -33 -34
-87 0 -120 21 -22 33 -25 100 -25 90 0 92 -3 79 -98 l-9 -67 -78 -5 c-67 -4
-82 -8 -98 -29 -27 -33 -25 -86 6 -116 21 -22 33 -25 95 -25 l70 0 0 -130 0
-130 306 0 306 0 -7 88 c-3 48 -12 285 -21 527 -20 608 -31 692 -90 744 -60
53 -199 76 -293 50z"/>
<path d="M4787 8193 c-11 -153 -28 -682 -47 -1518 -5 -231 -14 -557 -20 -725
-11 -310 -19 -620 -45 -1680 -8 -327 -17 -647 -19 -710 -10 -203 -16 -370 -21
-595 -3 -121 -8 -259 -12 -307 l-6 -88 493 0 492 0 -7 263 -7 262 84 85 c138
139 204 276 229 475 20 167 -3 935 -32 1022 -21 64 -94 84 -146 39 -32 -28
-32 -28 -14 -241 6 -77 11 -164 11 -192 l0 -53 -80 0 c-70 0 -80 2 -80 18 0 9
-4 121 -10 247 -9 229 -21 594 -40 1280 -6 198 -15 437 -20 530 -6 94 -19 481
-30 860 -11 380 -24 751 -30 825 -5 75 -10 168 -10 208 l0 72 -314 0 -314 0
-5 -77z m415 -1209 c84 -42 112 -168 57 -249 -84 -122 -288 -86 -318 56 -31
148 123 262 261 193z m0 -640 c104 -53 116 -219 21 -291 -75 -57 -207 -34
-260 46 -27 40 -31 113 -9 164 38 91 155 129 248 81z m-6 -653 c77 -35 115
-122 89 -207 -31 -104 -140 -151 -240 -105 -96 44 -129 134 -84 228 43 89 144
125 235 84z m3 -671 c102 -52 128 -182 55 -270 -36 -42 -74 -60 -129 -60 -141
0 -228 153 -152 269 50 76 147 102 226 61z m9 -711 c97 -48 112 -201 26 -281
-52 -48 -136 -63 -193 -34 -42 22 -89 81 -97 122 -14 75 35 161 111 195 53 24
99 24 153 -2z m519 -496 c-7 -192 -23 -276 -66 -359 -28 -55 -63 -104 -74
-104 -2 0 -7 114 -11 253 -4 138 -9 280 -12 315 l-6 62 87 0 88 0 -6 -167z
m-524 -439 c45 -23 66 -44 88 -86 60 -118 -30 -258 -166 -258 -161 0 -245 189
-132 298 65 62 143 80 210 46z"/>
<path d="M4620 2353 c0 -59 -21 -361 -30 -428 -44 -336 -76 -483 -137 -639
-85 -218 -158 -345 -271 -468 -92 -101 -103 -130 -71 -194 55 -115 297 -207
639 -243 52 -6 118 -13 145 -17 28 -3 133 -7 235 -7 201 0 331 11 540 49 226
40 410 127 456 215 32 62 15 105 -84 210 -171 183 -319 550 -376 934 -8 50
-22 206 -32 348 l-18 257 -498 0 c-468 0 -498 -1 -498 -17z"/>
</g>
</svg>
