<?xml version="1.0" standalone="no"?>
<!DOCTYPE svg PUBLIC "-//W3C//DTD SVG 20010904//EN"
 "http://www.w3.org/TR/2001/REC-SVG-20010904/DTD/svg10.dtd">
<svg version="1.0" xmlns="http://www.w3.org/2000/svg"
 width="412.000000pt" height="408.000000pt" viewBox="0 0 412.000000 408.000000"
 preserveAspectRatio="xMidYMid meet">

<g transform="translate(0.000000,408.000000) scale(0.100000,-0.100000)"
fill="#000000" stroke="none">
<path d="M641 3794 c-35 -29 -49 -81 -32 -122 7 -17 121 -114 304 -259 322
-256 622 -493 713 -564 48 -37 62 -55 77 -98 20 -57 82 -133 128 -157 97 -50
221 42 205 150 -15 98 -92 167 -202 182 -52 6 -81 28 -349 263 -17 14 -62 53
-100 86 -38 33 -75 65 -81 70 -6 6 -53 46 -105 90 -51 44 -163 141 -249 215
-85 75 -166 143 -180 153 -37 26 -93 22 -129 -9z"/>
<path d="M3515 3808 c-11 -7 -137 -113 -280 -237 -316 -273 -387 -334 -635
-545 -111 -94 -129 -106 -163 -106 -72 0 -166 -61 -193 -127 -30 -70 -11 -153
42 -188 38 -25 137 -17 184 14 48 32 89 88 103 140 13 48 0 36 327 289 69 53
145 112 170 132 25 20 124 99 220 175 96 76 216 172 267 212 51 40 98 83 104
95 6 11 9 39 6 62 -10 75 -91 119 -152 84z"/>
<path d="M2666 2674 l-45 -79 52 -7 c322 -46 652 -151 727 -232 30 -33 32 -88
5 -116 -74 -72 -285 -158 -494 -200 -221 -45 -393 -61 -696 -67 -290 -5 -503
8 -735 48 -358 61 -630 176 -630 267 0 54 110 132 256 182 100 35 227 61 482
101 84 13 83 8 20 105 -50 75 -46 75 -230 44 -320 -53 -547 -142 -647 -256
-49 -56 -54 -81 -49 -276 3 -144 3 -147 33 -190 17 -24 62 -67 100 -96 167
-125 460 -212 875 -258 185 -21 642 -24 820 -6 416 43 727 126 904 242 175
114 189 142 184 357 -3 146 -4 151 -33 198 -72 116 -292 213 -645 285 -52 11
-120 22 -151 26 l-57 6 -46 -78z"/>
<path d="M760 1466 l0 -342 31 -43 c18 -23 35 -39 39 -34 7 7 118 198 262 451
33 57 58 108 56 114 -2 5 -62 33 -133 61 -72 29 -158 71 -193 94 l-62 41 0
-342z"/>
<path d="M3467 1774 c-55 -37 -174 -92 -270 -124 -45 -15 -81 -32 -80 -38 4
-19 306 -549 322 -565 5 -5 21 7 37 29 l29 37 3 251 c2 138 2 293 0 344 l-3
92 -38 -26z"/>
<path d="M1373 1566 c8 -19 207 -486 260 -609 40 -92 54 -114 63 -105 11 12
334 640 334 650 0 3 -62 8 -137 11 -141 7 -308 25 -446 50 -55 10 -77 11 -74
3z"/>
<path d="M2792 1559 c-55 -11 -306 -36 -444 -45 -60 -4 -108 -9 -108 -11 0
-14 330 -657 339 -660 7 -3 18 23 179 402 148 348 141 325 105 324 -15 -1 -47
-5 -71 -10z"/>
<path d="M1187 1408 c-81 -137 -257 -448 -257 -453 0 -11 169 -88 253 -117
134 -45 380 -99 393 -86 8 9 -315 748 -327 748 -5 0 -33 -42 -62 -92z"/>
<path d="M2996 1463 c-13 -26 -208 -482 -274 -640 -26 -62 -28 -73 -14 -73 36
0 262 52 356 81 135 42 275 108 276 131 0 17 -311 528 -322 528 -4 0 -14 -12
-22 -27z"/>
<path d="M2123 1388 c-5 -7 -42 -78 -83 -158 -68 -135 -126 -246 -221 -428
-35 -65 -37 -73 -21 -80 23 -9 652 -9 675 0 16 7 5 34 -104 245 -120 236 -227
433 -233 433 -2 0 -8 -6 -13 -12z"/>
<path d="M678 940 c-4 -195 7 -239 74 -310 95 -100 217 -162 458 -230 559
-158 1460 -139 1977 41 162 56 231 95 314 178 87 87 88 89 90 266 2 172 4 166
-29 114 -42 -65 -136 -145 -222 -188 -557 -280 -1831 -285 -2381 -11 -129 64
-211 131 -258 210 l-21 35 -2 -105z"/>
</g>
</svg>
