<?xml version="1.0" standalone="no"?>
<!DOCTYPE svg PUBLIC "-//W3C//DTD SVG 20010904//EN"
 "http://www.w3.org/TR/2001/REC-SVG-20010904/DTD/svg10.dtd">
<svg version="1.0" xmlns="http://www.w3.org/2000/svg"
 width="945.000000pt" height="565.000000pt" viewBox="0 0 945.000000 565.000000"
 preserveAspectRatio="xMidYMid meet">

<g transform="translate(0.000000,565.000000) scale(0.100000,-0.100000)"
fill="#000000" stroke="none">
<path d="M807 3086 c-64 -17 -104 -58 -125 -126 -14 -45 -17 -95 -17 -265 0
-237 10 -297 57 -351 58 -65 36 -64 990 -64 l858 0 0 410 0 410 -857 -1 c-667
0 -869 -3 -906 -13z m1104 -279 c39 -26 69 -79 69 -122 0 -40 -32 -90 -72
-115 -30 -19 -47 -20 -210 -18 -173 3 -177 4 -203 28 -43 40 -58 78 -52 129 4
37 13 52 46 83 l40 38 174 0 c164 0 176 -1 208 -23z"/>
<path d="M2700 2690 l0 -410 3110 0 c2481 0 3110 3 3110 13 0 6 5 55 11 107
12 113 14 453 4 598 l-8 102 -3113 0 -3114 0 0 -410z m1180 148 c81 -41 116
-124 85 -204 -23 -61 -71 -96 -141 -102 -65 -5 -104 9 -144 54 -55 63 -52 150
7 215 55 61 120 73 193 37z m657 -9 c54 -33 76 -80 71 -150 -4 -48 -10 -65
-34 -90 -41 -44 -76 -59 -132 -59 -120 0 -198 126 -146 236 41 86 155 116 241
63z m618 12 c106 -48 137 -172 65 -255 -40 -45 -79 -59 -143 -54 -68 6 -113
37 -139 96 -38 86 6 185 97 217 53 19 72 18 120 -4z m628 5 c51 -19 76 -42 99
-95 48 -105 -34 -221 -157 -221 -145 0 -216 162 -120 269 51 56 109 71 178 47z
m640 0 c51 -19 76 -42 99 -95 48 -105 -36 -221 -159 -221 -58 0 -105 26 -140
79 -43 63 -24 168 39 212 54 39 101 46 161 25z"/>
</g>
</svg>
