<?xml version="1.0" standalone="no"?>
<!DOCTYPE svg PUBLIC "-//W3C//DTD SVG 20010904//EN"
 "http://www.w3.org/TR/2001/REC-SVG-20010904/DTD/svg10.dtd">
<svg version="1.0" xmlns="http://www.w3.org/2000/svg"
 width="1024.000000pt" height="1024.000000pt" viewBox="0 0 1024.000000 1024.000000"
 preserveAspectRatio="xMidYMid meet">

<g transform="translate(0.000000,1024.000000) scale(0.100000,-0.100000)"
fill="#000000" stroke="none">
<path d="M4755 9151 c-72 -33 -145 -129 -145 -191 0 -18 -6 -20 -72 -20 -89 0
-135 -20 -162 -70 -23 -44 -16 -97 19 -137 22 -26 29 -28 118 -31 l95 -4 4
-59 3 -59 -75 0 c-93 0 -138 -20 -164 -73 -24 -49 -15 -94 25 -133 29 -27 36
-29 130 -32 l99 -4 0 -41 c0 -23 3 -51 6 -63 5 -19 2 -20 -55 -16 -33 2 -81 1
-106 -2 -84 -13 -133 -94 -101 -169 25 -60 44 -67 192 -67 l132 0 13 -32 c7
-17 28 -52 48 -77 l34 -45 -6 -386 c-8 -419 -24 -1142 -32 -1420 -3 -96 -5
-192 -5 -212 l0 -38 -62 0 c-106 0 -306 -55 -433 -118 -285 -142 -462 -358
-531 -650 -35 -145 -16 -355 55 -632 71 -278 76 -380 26 -534 -33 -100 -25
-87 -178 -316 -240 -362 -319 -564 -347 -895 -25 -288 46 -599 191 -845 59
-100 198 -270 275 -335 147 -125 398 -268 559 -318 219 -69 350 -82 800 -81
380 0 517 8 680 40 506 100 938 471 1093 939 62 187 77 288 77 525 0 189 -3
228 -23 320 -54 241 -133 398 -357 710 -98 136 -117 173 -147 277 -36 126 -31
271 16 443 114 421 123 581 45 814 -95 286 -321 494 -659 606 -106 36 -224 60
-288 60 l-49 0 -7 218 c-10 305 -14 473 -20 817 -3 165 -9 463 -12 662 l-7
361 27 33 c15 17 36 49 47 70 l19 39 121 0 121 0 34 34 c19 19 34 45 35 58 5
112 -44 153 -178 146 l-73 -3 0 62 0 63 88 0 c49 0 97 6 111 13 92 47 80 190
-17 217 -20 5 -63 10 -94 10 l-58 0 0 38 c0 81 2 82 100 82 83 0 90 2 118 28
41 38 50 89 26 139 -26 51 -71 73 -155 73 l-65 0 -17 53 c-22 69 -69 124 -131
153 -50 24 -55 24 -381 24 -300 0 -334 -2 -370 -19z m204 -327 c35 -45 20
-105 -31 -123 -58 -20 -116 30 -103 89 14 62 96 82 134 34z m438 4 c45 -42 19
-126 -39 -129 -57 -3 -88 23 -88 74 0 67 78 101 127 55z m-439 -444 c12 -14
22 -36 22 -50 0 -35 -42 -74 -80 -74 -37 0 -80 39 -80 72 0 30 26 67 54 78 29
12 57 3 84 -26z m433 7 c17 -18 29 -40 29 -56 0 -36 -41 -75 -80 -75 -37 0
-80 39 -80 72 0 42 43 85 88 87 8 1 27 -12 43 -28z m-370 -681 l29 0 0 -1515
0 -1515 -29 0 c-16 0 -36 -3 -45 -6 -15 -6 -16 133 -16 1521 0 1388 1 1527 16
1521 9 -3 29 -6 45 -6z m259 -1516 l0 -1526 -37 7 c-21 4 -39 8 -40 9 -2 1 -4
683 -5 1514 l-3 1511 40 4 c22 2 41 4 43 5 1 1 2 -685 2 -1524z m435 -640
c131 -34 314 -138 424 -239 79 -72 158 -205 185 -311 42 -167 31 -286 -59
-636 -50 -197 -55 -224 -55 -326 0 -61 7 -145 15 -188 24 -128 52 -178 288
-526 126 -186 170 -281 225 -483 25 -92 27 -115 27 -290 0 -203 -8 -253 -71
-450 -58 -182 -167 -358 -302 -487 -103 -97 -187 -155 -329 -226 -251 -126
-408 -151 -953 -151 -464 -1 -609 17 -816 99 -334 133 -552 332 -695 634 -89
190 -122 335 -122 546 0 163 18 282 63 431 43 138 94 234 255 474 164 246 189
292 216 418 33 149 24 295 -34 522 -92 359 -98 498 -33 687 97 277 393 487
727 514 l75 7 -4 -499 -4 -499 -26 -19 c-111 -80 -218 -250 -248 -396 -31
-144 -1 -319 78 -460 17 -30 69 -92 115 -137 l83 -82 0 -431 0 -430 -151 0
-151 0 -33 -33 c-62 -62 -64 -152 -5 -211 l30 -31 678 -3 c649 -2 678 -1 708
17 63 38 83 139 41 202 -36 53 -56 59 -217 59 l-145 0 3 433 2 433 28 16 c15
9 50 41 79 70 144 148 210 373 169 579 -27 131 -83 238 -175 330 -42 42 -81
78 -88 80 -9 3 -12 134 -15 513 l-3 509 80 -6 c44 -4 107 -14 140 -23z m-482
-1079 c211 -55 356 -236 357 -445 0 -162 -76 -309 -204 -392 -242 -156 -560
-70 -681 185 -66 137 -67 271 -5 405 89 192 325 301 533 247z m-205 -1105 l22
0 0 -375 0 -375 -45 0 -45 0 0 381 0 381 23 -6 c12 -3 32 -6 45 -6z m252 -370
l0 -380 -45 0 -45 0 2 372 3 373 30 6 c17 4 36 7 43 8 9 1 12 -81 12 -379z"/>
</g>
</svg>
