<?xml version="1.0" standalone="no"?>
<!DOCTYPE svg PUBLIC "-//W3C//DTD SVG 20010904//EN"
 "http://www.w3.org/TR/2001/REC-SVG-20010904/DTD/svg10.dtd">
<svg version="1.0" xmlns="http://www.w3.org/2000/svg"
 width="1024.000000pt" height="1024.000000pt" viewBox="0 0 1024.000000 1024.000000"
 preserveAspectRatio="xMidYMid meet">

<g transform="translate(0.000000,1024.000000) scale(0.100000,-0.100000)"
fill="#000000" stroke="none">
<path d="M3560 8459 c-532 -67 -1025 -425 -1260 -914 -94 -196 -148 -369 -170
-545 -14 -120 -14 -4754 1 -4836 32 -174 169 -326 333 -370 78 -21 5246 -21
5320 0 28 8 71 20 96 26 35 10 60 28 115 84 39 39 82 94 97 122 61 113 58 29
58 1651 0 1523 -2 1598 -40 1748 -71 279 -265 523 -518 649 -124 63 -273 101
-682 176 -124 23 -260 50 -302 61 -343 86 -619 345 -712 669 -9 30 -27 116
-41 190 -63 344 -205 604 -466 855 -246 236 -543 382 -874 430 -111 16 -836
19 -955 4z m2560 -4704 c0 -615 4 -639 95 -652 l40 -5 -3 -509 -2 -509 -245 0
-245 0 0 509 0 508 42 6 c29 4 50 14 65 32 l23 26 0 548 c0 301 2 550 4 552 2
2 54 3 115 1 l111 -3 0 -504z m700 -33 c0 -519 1 -538 20 -570 21 -34 54 -52
96 -52 l24 0 0 -510 0 -510 -245 0 -245 0 0 510 0 510 26 0 c41 0 89 55 103
118 7 36 11 217 11 550 l0 497 105 -3 105 -3 0 -537z m947 521 c12 -7 31 -25
42 -39 21 -27 21 -29 21 -1021 0 -1105 5 -1023 -68 -1073 -35 -25 -37 -25
-314 -28 l-278 -3 0 509 0 508 42 10 c27 6 49 19 62 37 21 28 21 39 24 575 l2
547 223 -5 c150 -3 229 -9 244 -17z m-4757 -523 c0 -397 3 -546 12 -565 14
-31 56 -55 95 -55 l28 0 -1 -493 c0 -271 -3 -500 -7 -510 -6 -17 -26 -18 -299
-15 -288 3 -294 3 -331 27 -21 12 -46 40 -57 62 -20 37 -20 63 -20 1025 l0
987 40 39 41 38 249 0 250 0 0 -540z m800 18 c0 -318 4 -537 10 -559 13 -47
39 -69 89 -76 l41 -6 0 -508 0 -509 -292 2 -293 3 -3 506 -2 506 41 6 c27 3
52 15 68 31 l26 26 3 550 2 550 155 0 155 0 0 -522z m950 -568 l0 -1090 -295
0 -295 0 0 510 0 510 25 0 c34 0 82 25 95 49 6 13 10 210 10 565 l0 546 230 0
230 0 0 -1090z m642 539 l3 -551 33 -29 c24 -22 42 -29 72 -29 l40 0 0 -510 0
-510 -277 2 -278 3 -2 1088 -3 1087 205 0 205 0 2 -551z"/>
</g>
</svg>
