<?xml version="1.0" standalone="no"?>
<!DOCTYPE svg PUBLIC "-//W3C//DTD SVG 20010904//EN"
 "http://www.w3.org/TR/2001/REC-SVG-20010904/DTD/svg10.dtd">
<svg version="1.0" xmlns="http://www.w3.org/2000/svg"
 width="1024.000000pt" height="1024.000000pt" viewBox="0 0 1024.000000 1024.000000"
 preserveAspectRatio="xMidYMid meet">

<g transform="translate(0.000000,1024.000000) scale(0.100000,-0.100000)"
fill="#000000" stroke="none">
<path d="M1659 9357 c-59 -39 -74 -98 -43 -163 9 -19 28 -43 43 -53 14 -11
252 -132 529 -270 277 -138 520 -262 540 -275 20 -13 60 -27 88 -30 54 -7 381
-95 541 -146 139 -44 173 -65 203 -125 21 -44 24 -65 28 -195 3 -127 -38
-1336 -83 -2410 -8 -195 -22 -533 -30 -750 -9 -217 -22 -548 -30 -735 -28
-648 -16 -910 53 -1185 147 -578 543 -1010 1096 -1195 203 -68 315 -87 557
-92 245 -6 340 5 566 63 709 181 1183 706 1287 1429 19 131 34 379 41 695 18
789 65 1010 255 1201 58 59 94 85 160 117 85 41 204 72 278 72 55 0 127 24
169 55 39 30 72 94 73 139 1 112 -69 183 -310 320 -213 122 -906 522 -1588
918 -123 71 -248 141 -278 155 -65 29 -150 33 -213 7 -59 -23 -126 -101 -141
-164 -22 -91 -9 -128 98 -286 45 -67 62 -132 62 -233 0 -122 -12 -184 -86
-439 -91 -315 -127 -467 -162 -687 -51 -315 -64 -535 -61 -1060 3 -419 1 -463
-14 -492 -23 -43 -60 -45 -81 -5 -27 52 -45 181 -156 1087 -61 495 -121 990
-135 1100 -22 179 -101 826 -171 1400 -33 276 -128 943 -159 1120 -62 349
-147 552 -304 718 -140 148 -312 238 -541 283 -60 11 -171 18 -379 23 -215 4
-295 9 -298 18 -9 27 -48 66 -79 79 -27 11 -150 14 -662 14 l-629 0 -34 -23z
m1977 -427 c185 -23 309 -77 410 -176 78 -78 151 -220 188 -369 35 -144 123
-711 142 -918 l6 -74 -68 -6 c-38 -3 -86 -11 -106 -17 -111 -33 -152 -151 -79
-228 37 -40 96 -55 205 -50 l91 3 25 -197 c13 -108 22 -200 19 -203 -3 -3 -31
6 -62 20 -114 53 -224 40 -309 -35 -64 -56 -92 -117 -92 -205 0 -118 56 -205
168 -260 97 -47 204 -36 292 31 24 19 48 34 52 34 12 0 64 -442 54 -452 -5 -5
-32 7 -61 26 -64 43 -107 56 -191 56 -117 0 -216 -66 -269 -179 -38 -82 -37
-193 2 -273 58 -117 159 -174 297 -166 93 5 144 31 214 109 45 50 46 50 55 27
15 -34 82 -591 73 -600 -5 -5 -27 14 -50 41 -26 31 -63 60 -99 78 -51 25 -69
28 -153 28 -83 0 -102 -3 -151 -28 -67 -32 -142 -109 -172 -175 -33 -72 -30
-198 5 -274 35 -75 98 -141 167 -175 49 -25 67 -28 151 -28 84 0 102 3 152 28
65 32 141 110 158 162 15 44 37 45 44 3 3 -18 24 -190 46 -383 64 -546 73
-593 133 -708 37 -70 100 -130 175 -165 50 -24 69 -27 157 -27 90 0 105 3 153
28 130 68 212 210 212 365 0 52 1 54 23 47 12 -3 32 -9 44 -12 15 -3 23 -15
28 -41 33 -178 164 -296 330 -296 134 0 258 72 311 181 26 52 29 69 29 158 0
86 -3 107 -24 150 -33 66 -100 131 -169 163 -49 23 -70 27 -153 27 -91 0 -99
-2 -171 -38 l-75 -38 -59 14 c-32 8 -71 18 -86 21 l-28 6 0 335 c0 224 3 336
11 340 5 4 21 4 35 1 18 -5 24 -13 24 -35 0 -16 9 -59 21 -96 27 -88 96 -161
184 -195 88 -35 200 -34 275 1 77 36 121 77 161 151 32 60 34 68 34 163 0 89
-3 106 -27 150 -34 65 -104 130 -176 163 -49 23 -71 27 -152 27 -84 0 -102 -3
-152 -28 l-58 -28 -65 22 c-77 26 -75 15 -45 199 26 159 85 400 149 613 65
215 81 297 88 432 5 102 -6 202 -34 304 -5 21 -3 23 14 19 11 -3 213 -118 449
-255 236 -137 579 -337 762 -443 182 -107 332 -197 332 -202 0 -4 -5 -8 -11
-8 -24 0 -204 -92 -263 -134 -177 -127 -306 -330 -370 -587 -51 -199 -70 -445
-81 -1014 -7 -356 -17 -482 -50 -650 -91 -456 -336 -781 -731 -971 -526 -252
-1143 -222 -1594 79 -95 63 -280 249 -344 346 -188 284 -282 669 -261 1076 10
210 44 1042 65 1595 11 294 29 760 40 1035 47 1192 52 1365 54 1640 1 289 1
290 -25 367 -34 98 -76 164 -145 228 -80 72 -173 113 -389 170 -261 70 -286
78 -307 97 -17 16 -25 73 -11 86 10 11 520 8 609 -3z"/>
</g>
</svg>
