<?xml version="1.0" standalone="no"?>
<!DOCTYPE svg PUBLIC "-//W3C//DTD SVG 20010904//EN"
 "http://www.w3.org/TR/2001/REC-SVG-20010904/DTD/svg10.dtd">
<svg version="1.0" xmlns="http://www.w3.org/2000/svg"
 width="1024.000000pt" height="1024.000000pt" viewBox="0 0 1024.000000 1024.000000"
 preserveAspectRatio="xMidYMid meet">

<g transform="translate(0.000000,1024.000000) scale(0.100000,-0.100000)"
fill="#000000" stroke="none">
<path d="M5255 9081 c-27 -10 -65 -25 -83 -35 -48 -25 -169 -142 -212 -206
-80 -118 -168 -325 -200 -472 -40 -186 -54 -336 -54 -593 1 -281 5 -327 71
-705 20 -113 38 -238 40 -278 l5 -73 -283 -282 c-468 -466 -561 -573 -719
-827 -95 -153 -136 -235 -185 -365 -64 -172 -85 -272 -95 -460 -10 -190 2
-292 59 -510 97 -370 341 -729 624 -918 161 -107 384 -206 577 -255 99 -25
118 -27 340 -27 204 0 281 6 393 28 24 4 47 -73 86 -293 65 -362 83 -577 62
-757 -20 -171 -55 -271 -139 -394 -89 -132 -185 -200 -340 -240 -132 -34 -318
-18 -429 37 -47 23 -93 64 -93 84 0 4 30 15 67 25 190 47 286 116 348 248 50
106 68 186 63 284 -6 111 -52 207 -139 287 -79 74 -141 104 -240 118 -144 20
-298 -27 -406 -125 -73 -67 -125 -148 -157 -245 -22 -64 -26 -96 -26 -187 0
-122 15 -196 56 -278 81 -161 241 -331 369 -392 41 -20 118 -48 172 -62 90
-25 114 -27 293 -27 189 -1 198 0 274 27 241 85 443 317 516 592 45 169 55
429 26 644 -23 169 -83 504 -101 565 -8 27 -15 73 -15 102 0 60 7 67 115 122
33 16 101 57 150 90 320 212 456 445 511 876 19 150 11 244 -32 406 -81 302
-257 512 -589 703 -128 73 -229 98 -421 104 -193 7 -173 -12 -209 197 -13 77
-39 206 -58 286 -56 230 -69 308 -55 333 6 12 50 63 97 112 242 252 449 581
565 895 42 117 120 416 136 529 17 114 8 484 -15 611 -35 194 -98 372 -170
480 -45 68 -142 158 -204 190 -102 52 -252 65 -346 31z m305 -503 c64 -39 102
-95 125 -183 18 -71 21 -312 4 -383 -47 -200 -155 -452 -269 -627 -69 -106
-253 -335 -328 -408 l-59 -58 -16 58 c-38 136 -51 279 -51 568 -1 229 3 296
17 368 26 130 80 287 142 413 83 170 166 250 286 273 74 15 93 12 149 -21z
m-546 -2678 c13 -63 30 -144 36 -180 6 -36 25 -119 41 -184 17 -65 29 -130 27
-144 -2 -21 -23 -37 -123 -91 -66 -36 -132 -74 -145 -83 -46 -33 -141 -132
-185 -193 -62 -87 -149 -256 -181 -355 -26 -80 -28 -96 -28 -260 -1 -171 0
-177 31 -270 37 -108 75 -169 161 -256 103 -106 192 -155 315 -175 59 -10 137
2 137 21 0 5 -37 28 -82 52 -110 56 -216 159 -246 239 -46 125 -47 261 -1 383
39 106 138 234 242 315 67 51 207 125 217 114 14 -15 63 -262 130 -659 11 -67
31 -177 45 -245 14 -68 41 -221 60 -339 18 -118 38 -234 43 -257 11 -49 14
-46 -88 -63 -95 -15 -277 -12 -399 6 -199 29 -450 128 -587 231 -165 125 -261
236 -333 386 -100 207 -136 362 -126 542 8 157 20 237 55 371 37 138 82 245
153 360 84 135 113 171 381 463 109 119 410 402 418 393 3 -4 18 -59 32 -122z
m684 -1076 c108 -36 150 -60 220 -128 188 -180 246 -309 246 -546 0 -227 -52
-391 -172 -542 -69 -87 -242 -232 -257 -216 -3 4 -68 285 -95 413 -99 473
-196 1036 -181 1051 12 13 168 -8 239 -32z"/>
</g>
</svg>
