<?xml version="1.0" standalone="no"?>
<!DOCTYPE svg PUBLIC "-//W3C//DTD SVG 20010904//EN"
 "http://www.w3.org/TR/2001/REC-SVG-20010904/DTD/svg10.dtd">
<svg version="1.0" xmlns="http://www.w3.org/2000/svg"
 width="332.000000pt" height="247.000000pt" viewBox="0 0 332.000000 247.000000"
 preserveAspectRatio="xMidYMid meet">

<g transform="translate(0.000000,247.000000) scale(0.100000,-0.100000)"
fill="#000000" stroke="none">
<path d="M212 2007 c-22 -23 -22 -23 -22 -531 l0 -507 25 -24 c48 -49 128 -19
141 53 26 148 202 290 431 348 89 22 302 43 446 44 l58 0 -3 -47 -3 -48 -150
-5 c-174 -6 -200 -15 -290 -103 -71 -70 -99 -143 -93 -243 6 -85 32 -138 101
-201 79 -73 93 -77 269 -81 l157 -4 7 -34 c9 -50 45 -74 109 -74 65 0 102 25
107 73 3 31 5 32 54 35 l51 3 7 -40 c8 -53 47 -75 118 -69 57 6 85 28 94 75 6
34 6 34 58 31 49 -3 51 -4 54 -35 5 -48 42 -73 107 -73 65 0 102 25 107 73 l3
32 160 5 c155 5 162 6 229 38 91 43 150 92 196 163 89 138 98 347 20 499 l-18
36 71 -3 c134 -6 157 -12 157 -37 0 -31 18 -46 55 -46 57 0 65 21 65 163 0
114 -2 129 -20 147 -11 11 -31 20 -43 20 -27 0 -57 -28 -57 -53 0 -21 -15 -25
-145 -37 -153 -14 -241 -12 -305 6 -33 9 -118 18 -212 21 l-158 6 0 53 c0 53
-22 94 -51 94 -6 0 -9 17 -7 42 3 39 6 43 37 49 37 8 51 23 51 54 0 39 -19 45
-135 45 -120 0 -135 -6 -135 -51 0 -31 9 -39 54 -48 26 -6 31 -12 34 -40 3
-27 -3 -39 -27 -62 -28 -25 -31 -34 -31 -83 l0 -56 -60 0 -60 0 0 59 c0 52 -3
62 -25 79 -19 15 -25 29 -25 60 0 39 2 41 32 44 42 4 64 42 44 73 -12 18 -26
20 -130 23 l-116 3 -10 -27 c-15 -38 10 -74 50 -74 28 0 30 -2 30 -40 0 -31
-6 -46 -26 -63 -19 -17 -26 -35 -31 -79 l-6 -58 -53 0 -54 0 0 51 c0 43 -5 55
-30 81 -23 23 -30 39 -30 69 0 36 2 39 28 39 33 0 62 27 62 56 0 38 -19 44
-142 44 l-118 0 -11 -26 c-14 -38 11 -74 51 -74 28 0 30 -2 30 -41 0 -32 -6
-47 -25 -65 -21 -20 -25 -32 -25 -85 l0 -62 -157 7 c-321 14 -520 70 -651 182
-52 44 -122 151 -122 186 0 14 -12 40 -26 57 -33 40 -89 43 -122 8z m1398
-902 l0 -285 -55 0 -55 0 0 285 0 285 55 0 55 0 0 -285z m330 0 l0 -285 -60 0
-60 0 0 285 0 285 60 0 60 0 0 -285z m521 269 c40 -12 66 -28 100 -63 56 -58
74 -114 67 -209 -8 -111 -65 -194 -171 -249 -46 -24 -66 -27 -179 -31 l-128
-4 0 286 0 286 128 0 c88 0 145 -5 183 -16z m-1173 -397 l-3 -152 -115 -3
c-132 -3 -187 11 -220 59 -41 57 -39 125 6 179 52 61 105 77 245 72 l90 -3 -3
-152z"/>
</g>
</svg>
